<svg xmlns="http://www.w3.org/2000/svg" xmlns:xlink="http://www.w3.org/1999/xlink" version="1.1" width="1000" height="1000" viewBox="0 0 1000 1000" xml:space="preserve">
<desc>Created with Fabric.js 3.5.0</desc>
<defs>
</defs>
<rect x="0" y="0" width="100%" height="100%" fill="#ffffff"/>
<g transform="matrix(1 0 0 1 500 500)" style="filter: url(#SVGID_2);" id="220025">
<filter id="SVGID_2" y="-24.259999999999998%" height="148.51999999999998%" x="-21%" width="142%">
	<feGaussianBlur in="SourceAlpha" stdDeviation="0"/>
	<feOffset dx="5" dy="13" result="oBlur"/>
	<feFlood flood-color="rgb(72,152,156)" flood-opacity="1"/>
	<feComposite in2="oBlur" operator="in"/>
	<feMerge>
		<feMergeNode/>
		<feMergeNode in="SourceGraphic"/>
	</feMerge>
</filter>
		
<path xml:space="preserve" font-family="Modak" font-size="142" style="stroke: rgb(72,152,156); stroke-width: 5; stroke-dasharray: none; stroke-linecap: butt; stroke-dashoffset: 0; stroke-linejoin: miter; stroke-miterlimit: 4; is-custom-font: none; font-file-url: none; fill: rgb(222,201,187); fill-rule: nonzero; opacity: 1; white-space: pre;" d="M-152.23-26.35L-152.23-26.35Q-161.73-26.35-167.13-29.47L-167.13-29.47Q-172.96-32.73-173.44-38.69L-173.44-38.69L-174.07-45.21Q-167.69-46.74-163.32-53.11L-163.32-53.11Q-162.14-54.92-162.14-56.23L-162.14-56.23Q-162.14-58.04-163.94-58.04L-163.94-58.04L-164.15-58.04Q-164.22-57.97-164.43-57.97L-164.43-57.97Q-169.28-47.78-180.17-47.78L-180.17-47.78Q-185.72-47.78-189.63-50.20Q-193.55-52.63-196.81-58.59L-196.81-58.59L-197.23-58.59Q-199.10-58.59-199.10-57.00L-199.10-57.00Q-199.10-55.89-198.27-54.50L-198.27-54.50Q-195.49-49.86-191.33-47.22L-191.33-47.22Q-188.07-45.00-184.47-44.59L-184.47-44.59L-185.02-31.48Q-189.18-28.78-193.79-27.56Q-198.40-26.35-206.90-26.35Q-215.39-26.35-222.05-29.68L-222.05-29.68Q-230.23-33.77-230.23-41.05L-230.23-41.05Q-230.23-50.13-226.62-85.91L-226.62-85.91Q-224.68-104.56-223.50-111.98L-223.50-111.98Q-216.36-118.36-202.43-118.36L-202.43-118.36Q-192.30-118.36-185.65-114.62L-185.65-114.62L-181.83-101.86L-184.26-91.67Q-184.54-90.63-184.54-89.65L-184.54-89.65Q-184.54-87.23-181.76-87.16L-181.76-87.16L-175.18-114.55Q-172.33-116.07-167.76-117.22Q-163.18-118.36-157.77-118.36L-157.77-118.36Q-147.65-118.36-142.76-114.93Q-137.87-111.50-136.97-103.38L-136.97-103.38Q-136.77-101.86-136.35-98.32L-136.35-98.32Q-130.04-44.10-130.04-34.46L-130.04-34.46Q-137.74-26.35-152.23-26.35ZM-90.86-66.22L-90.86-66.22L-90.86-54.09Q-90.38-53.60-89.27-53.60Q-88.16-53.60-87.68-54.36Q-87.19-55.13-87.19-57.00L-87.19-57.00L-87.19-66.91Q-87.19-73.57-87.74-75.75Q-88.30-77.94-89.82-77.94L-89.82-77.94Q-90.80-77.94-91.49-77.24L-91.49-77.24Q-90.86-70.38-90.86-66.22ZM-116.80-35.50L-116.80-35.50Q-128.17-46.46-128.17-65.21Q-128.17-83.97-117.46-94.82Q-106.74-105.67-89.34-105.67Q-71.94-105.67-61.19-94.37L-61.19-94.37Q-50.51-83.07-50.51-64.94Q-50.51-46.81-60.81-36.13Q-71.10-25.45-88.78-25.45Q-106.47-25.45-116.80-35.50ZM-13.90-61.50L-13.90-61.50L-13.90-59.84Q-13.90-58.66-13.83-58.18L-13.83-58.18Q-13.00-57.83-12.24-57.83L-12.24-57.83Q-10.23-57.83-10.23-60.53L-10.23-60.53Q-10.23-67.61-8.56-87.16L-8.56-87.16Q-7.66-97.77-7.45-99.64L-7.45-99.64Q-0.94-104.01 8.18-104.01Q17.30-104.01 22.29-99.15L22.29-99.15Q26.73-94.72 26.73-87.64L26.73-87.64Q26.73-82.86 25.41-77.73L25.41-77.73Q18.96-52.84 12.58-38.55L12.58-38.55Q9.19-31.14 2.25-28.43L2.25-28.43Q-2.88-26.35-12.38-26.35L-12.38-26.35Q-17.44-26.35-22.40-27.18Q-27.35-28.02-29.99-29.12L-29.99-29.12Q-40.04-49.65-46.56-74.54L-46.56-74.54Q-48.71-76.69-50.23-80.57Q-51.76-84.45-51.76-88.61L-51.76-88.61Q-51.76-97.21-47.60-103.38L-47.60-103.38Q-47.60-103.38-30.33-103.38L-30.33-103.38Q-21.25-103.38-16.81-98.25L-16.81-98.25Q-13.49-94.37-12.52-86.95L-12.52-86.95Q-13.90-74.05-13.90-61.50ZM66.11-90.00L66.11-90.00L66.11-62.54Q66.11-52.21 71.10-49.09L71.10-49.09Q71.17-48.75 71.17-47.78L71.17-47.78L71.17-46.53Q71.17-36.34 65.63-31.20L65.63-31.20Q60.50-26.35 51.93-26.35Q43.37-26.35 37.82-31.20L37.82-31.20Q30.82-37.38 30.82-49.23L30.82-49.23L30.82-94.30Q32.07-95.20 33.52-95.76Q34.98-96.31 36.57-97.14L36.57-97.14Q33.59-98.67 31.17-102.45Q28.74-106.23 28.74-111.29L28.74-111.29Q28.74-120.02 34.49-125.57Q40.25-131.12 48.60-131.12Q56.96-131.12 62.61-125.47Q68.26-119.82 68.26-111.29L68.26-111.29Q68.26-104.42 63.96-99.26Q59.66-94.09 53.49-92.77L53.49-92.77Q53.49-90.14 55.50-90.14L55.50-90.14Q59.04-90.14 62.71-92.91L62.71-92.91Q65.49-90.76 66.11-90.00ZM147.79-76.13L147.58-61.92Q147.58-56.93 148.69-53.88Q149.80-50.83 152.57-49.09L152.57-49.09Q152.64-48.75 152.64-47.78L152.64-47.78L152.64-46.53Q152.64-36.96 147.13-31.66Q141.62-26.35 132.92-26.35Q124.22-26.35 118.81-31.27L118.81-31.27Q112.50-36.89 112.50-48.33L112.50-48.33Q112.50-53.18 112.95-56.89Q113.40-60.60 113.57-62.20Q113.75-63.79 113.95-65.18Q114.16-66.57 114.16-69.27Q114.16-71.97 113.43-73.15Q112.71-74.33 111.42-74.33Q110.14-74.33 109.17-73.78L109.17-73.78L110.07-62.48Q108.82-55.47 108.82-47.64Q108.82-39.80 112.36-33.35L112.36-33.35Q105.56-26.35 93.29-26.35L93.29-26.35Q86.29-26.35 81.16-30.03L81.16-30.03Q75.19-34.19 75.19-41.05L75.19-41.05L75.19-74.61Q71.10-80.36 71.10-88.79Q71.10-97.21 75.19-103.38L75.19-103.38L87.54-103.38Q92.46-103.38 95.93-99.71L95.93-99.71Q92.88-96.87 92.88-94.99L92.88-94.99Q92.88-92.84 95.30-92.84L95.30-92.84Q98.35-98.11 104.63-101.58Q110.90-105.05 118.88-105.05L118.88-105.05Q130.87-105.05 138.36-99.15L138.36-99.15Q147.79-91.73 147.79-76.13L147.79-76.13ZM193.83-73.98L193.83-77.31Q193.83-79.81 191.96-79.81L191.96-79.81Q190.22-79.81 190.22-77.73L190.22-77.73L190.22-70.59Q190.78-70.10 191.89-70.10Q193.00-70.10 193.41-70.93Q193.83-71.77 193.83-73.98L193.83-73.98ZM196.39-49.23L196.39-49.23Q191.96-49.23 188.84-49.86L188.84-49.86Q188.63-49.23 188.63-48.68L188.63-48.68Q188.63-47.15 190.81-46.63Q193.00-46.11 196.39-46.11L196.39-46.11Q207.21-46.11 214.84-49.30L214.84-49.30Q222.33-47.36 226.49-40.84L226.49-40.84Q229.88-35.50 229.88-28.29L229.88-28.29Q229.88-15.47 219.00-8.32Q208.11-1.18 190.95-1.18Q173.79-1.18 164.43-7.28L164.43-7.28Q155.76-12.83 155.76-21.71L155.76-21.71Q155.76-25.10 157.36-28.26Q158.95-31.41 161.03-32.59L161.03-32.59Q164.50-29.68 171.26-27.88Q178.02-26.07 185.16-26.07Q192.30-26.07 194.35-26.63Q196.39-27.18 196.39-28.57L196.39-28.57Q196.39-29.26 195.98-29.96L195.98-29.96Q192.51-29.19 187.31-29.19L187.31-29.19Q173.93-29.19 166.30-33.01L166.30-33.01Q157.01-37.58 157.01-46.81L157.01-46.81Q157.01-50.41 158.47-53.50Q159.92-56.58 162.77-58.11L162.77-58.11Q158.95-60.46 156.28-65.25Q153.61-70.03 153.61-77.04L153.61-77.04Q153.61-90.35 163.60-98.04Q173.58-105.74 189.53-105.74L189.53-105.74Q197.23-105.74 204.37-103.18L204.37-103.18L204.37-108.03Q208.46-109.62 215.22-109.62Q221.98-109.62 225.52-107.34L225.52-107.34Q229.81-104.56 229.81-97.56L229.81-97.56Q229.81-93.68 229.02-91.32Q228.22-88.96 226.69-86.40L226.69-86.40Q228.50-81.82 228.50-75.02L228.50-75.02Q228.50-62.75 219.79-55.99Q211.09-49.23 196.39-49.23Z"/><path xml:space="preserve" font-family="Modak" font-size="142" style="stroke: rgb(72,152,156); stroke-width: 5; stroke-dasharray: none; stroke-linecap: butt; stroke-dashoffset: 0; stroke-linejoin: miter; stroke-miterlimit: 4; is-custom-font: none; font-file-url: none; fill: rgb(222,201,187); fill-rule: nonzero; opacity: 1; white-space: pre;" d="M-119.08 27.37L-119.08 27.37L-79.08 27.37Q-77.07 30.70-76.10 34.62Q-75.13 38.53-75.13 41.65L-75.13 41.65Q-75.13 48.66-77.86 52.19Q-80.60 55.73-85.53 55.73L-85.53 55.73L-113.47 55.73Q-116.03 55.73-116.03 57.74L-116.03 57.74L-116.03 58.30Q-116.03 58.71-115.90 58.85L-115.90 58.85L-82.75 58.85Q-81.50 61.00-80.60 64.26L-80.60 64.26Q-79.77 67.79-79.77 70.57L-79.77 70.57Q-79.77 78.82-82.82 83.46L-82.82 83.46L-97.87 83.46Q-108.41 83.46-112.15 84.26Q-115.90 85.06-116.80 85.61L-116.80 85.61Q-117.70 86.24-117.70 87.21Q-117.70 88.18-116.73 88.73L-116.73 88.73Q-113.12 87.56-109.17 87.07L-109.17 87.07Q-103.97 86.58-97.87 86.58L-97.87 86.58L-78.38 86.58Q-74.15 92.55-74.15 100.94L-74.15 100.94Q-74.15 105.65-75.33 109.95Q-76.51 114.25-78.87 116.88L-78.87 116.88L-130.80 116.88Q-139.40 116.88-144.60 112.72L-144.60 112.72Q-150.29 108.29-150.29 99.69L-150.29 99.69L-150.29 33.75Q-150.29 30.42-142.66 28.90Q-135.03 27.37-119.08 27.37ZM-0.66 68.90L-0.66 82.49Q-0.66 87.49 0.45 90.54Q1.56 93.59 4.33 95.32L4.33 95.32Q4.40 95.67 4.40 96.64L4.40 96.64L4.40 97.89Q4.40 107.73-1.56 113.21L-1.56 113.21Q-6.83 118.06-14.60 118.06L-14.60 118.06Q-19.86 118.06-24.23 115.57Q-28.60 113.07-30.47 108.36L-30.47 108.36Q-32.83 108.36-32.83 110.64L-32.83 110.64Q-32.83 112.59-30.40 115.01L-30.40 115.01Q-34.91 118.06-43.99 118.06L-43.99 118.06Q-56.82 118.06-64.48 111.09Q-72.14 104.13-72.14 91.61Q-72.14 79.10-64.03 72.23L-64.03 72.23Q-56.61 66.06-44.83 66.06L-44.83 66.06Q-40.80 66.06-37.06 66.62L-37.06 66.62Q-34.56 67.10-34.36 67.17L-34.36 67.17Q-34.15 66.48-34.15 65.99L-34.15 65.99Q-34.15 64.19-37.20 63.56Q-40.25 62.94-45.17 62.94L-45.17 62.94Q-55.64 62.94-63.06 67.17L-63.06 67.17Q-66.46 61.42-66.46 52.61L-66.46 52.61Q-66.46 47.62-65.21 45.19L-65.21 45.19Q-60.22 42.90-52.52 41.13Q-44.83 39.37-36.30 39.37L-36.30 39.37Q-18.69 39.37-9.67 47.06Q-0.66 54.76-0.66 68.90L-0.66 68.90ZM-36.64 85.89L-36.64 85.89Q-39.56 85.89-39.56 88.53L-39.56 88.53Q-39.56 91.02-36.16 91.02L-36.16 91.02Q-33.80 91.02-32.69 89.88Q-31.58 88.73-31.58 85.89L-31.58 85.89Q-31.58 85.89-36.64 85.89ZM44.34 62.46L44.34 62.46Q42.54 63.01 42.54 64.60L42.54 64.60L42.54 64.95Q42.54 65.30 42.61 65.37L42.61 65.37Q43.37 65.30 44.62 65.30L44.62 65.30L46.28 65.30Q54.19 65.30 61.08 67.69Q67.98 70.08 72.35 75.35L72.35 75.35Q77.21 81.31 77.21 90.40L77.21 90.40Q77.21 104.54 67.43 111.75Q57.65 118.96 41.29 118.96Q24.93 118.96 15.67 113.56Q6.41 108.15 6.41 97.68L6.41 97.68Q6.41 93.80 8.08 90.57Q9.74 87.35 11.82 86.03L11.82 86.03Q15.64 89.22 22.88 91.54Q30.13 93.86 38.24 93.86L38.24 93.86Q41.50 93.86 41.50 92.06L41.50 92.06Q41.50 91.23 41.29 90.68L41.29 90.68Q40.80 90.74 40.11 90.74L40.11 90.74L39.35 90.74Q24.65 90.74 15.84 84.92L15.84 84.92Q5.86 78.33 5.86 66.34Q5.86 54.34 14.80 46.92L14.80 46.92Q24.72 38.74 42.05 38.74L42.05 38.74Q50.58 38.74 57.96 40.55Q65.35 42.35 70.62 45.33L70.62 45.33Q71.94 48.17 71.94 53.72L71.94 53.72Q71.94 62.18 67.29 66.69L67.29 66.69Q63.75 64.74 58.66 63.46Q53.56 62.18 49.47 62.18Q45.38 62.18 44.34 62.46ZM112.71 81.80L112.71 81.80L112.71 83.39Q112.71 84.50 112.77 84.99L112.77 84.99Q113.47 85.34 114.30 85.34L114.30 85.34Q116.31 85.34 116.31 82.29L116.31 82.29Q116.31 72.09 117.46 61.10Q118.60 50.11 119.92 44.15L119.92 44.15Q125.53 40.06 134.89 40.06Q144.25 40.06 149.35 43.70Q154.45 47.34 154.45 52.47L154.45 52.47Q154.45 54.62 151.88 70.22L151.88 70.22Q149.04 86.10 144.60 103.64L144.60 103.64Q143.70 107.18 141.38 113.56Q139.05 119.94 136.42 124.16L136.42 124.16Q128.17 137.27 116.03 140.39L116.03 140.39Q110.35 141.85 104.59 141.85L104.59 141.85Q93.43 141.85 87.33 136.30L87.33 136.30Q81.71 131.31 81.71 123.92Q81.71 116.54 86.08 110.02L86.08 110.02Q87.12 109.74 89.89 109.74Q92.67 109.74 96.83 110.44L96.83 110.44Q108.34 112.59 108.55 112.59L108.55 112.59Q109.03 112.65 109.62 112.76Q110.21 112.86 111.18 112.86Q112.15 112.86 112.84 112.31Q113.54 111.75 113.54 110.09L113.54 110.09L97.17 106.97Q91.14 104.47 86.70 96.50L86.70 96.50Q81.23 86.65 79.29 69.81L79.29 69.81Q74.71 63.84 74.71 55.52Q74.71 47.20 78.87 41.03L78.87 41.03L96.69 41.03Q105.63 41.03 110.07 46.16L110.07 46.16Q113.33 49.98 114.23 57.32L114.23 57.32Q112.71 69.39 112.71 81.80Z"/></g>
</svg>